<svg width="23" height="24" viewBox="0 0 23 24" fill="none" xmlns="http://www.w3.org/2000/svg">
<g clip-path="url(#clip0_26_299)">
<path d="M20.572 18.2106C20.2358 18.9875 19.8377 19.7026 19.3766 20.36C18.748 21.2562 18.2333 21.8766 17.8366 22.2211C17.2217 22.7866 16.5629 23.0762 15.8575 23.0927C15.351 23.0927 14.7402 22.9485 14.0293 22.6562C13.316 22.3652 12.6605 22.2211 12.0611 22.2211C11.4325 22.2211 10.7583 22.3652 10.0372 22.6562C9.31501 22.9485 8.7332 23.1009 8.28837 23.116C7.61187 23.1448 6.93755 22.847 6.26448 22.2211C5.83488 21.8464 5.29755 21.2041 4.65384 20.2941C3.9632 19.3224 3.39539 18.1956 2.95056 16.9109C2.47417 15.5233 2.23535 14.1796 2.23535 12.8787C2.23535 11.3886 2.55734 10.1034 3.20228 9.02638C3.70915 8.16129 4.38346 7.47887 5.22741 6.97791C6.07137 6.47694 6.98326 6.22166 7.96529 6.20532C8.50262 6.20532 9.20727 6.37153 10.0829 6.69819C10.9561 7.02595 11.5168 7.19216 11.7626 7.19216C11.9464 7.19216 12.5692 6.99781 13.6251 6.61035C14.6236 6.25103 15.4663 6.10225 16.1567 6.16085C18.0274 6.31183 19.4328 7.04928 20.3675 8.37787C18.6944 9.3916 17.8668 10.8115 17.8833 12.6329C17.8984 14.0517 18.4131 15.2323 19.4246 16.1697C19.883 16.6048 20.395 16.9411 20.9646 17.1799C20.841 17.5381 20.7106 17.8812 20.572 18.2106ZM16.2816 1.32743C16.2816 2.43945 15.8753 3.47774 15.0655 4.43877C14.0883 5.58124 12.9063 6.24142 11.6245 6.13725C11.6082 6.00384 11.5987 5.86343 11.5987 5.71589C11.5987 4.64835 12.0634 3.50588 12.8887 2.57175C13.3008 2.09878 13.8248 1.70552 14.4603 1.3918C15.0944 1.08277 15.6941 0.911865 16.2582 0.882599C16.2747 1.03126 16.2816 1.17993 16.2816 1.32742V1.32743Z" fill="black"/>
</g>
<defs>
<clipPath id="clip0_26_299">
<rect width="22.2353" height="22.2353" fill="white" transform="translate(0.382324 0.882355)"/>
</clipPath>
</defs>
</svg>
