<svg width="24" height="24" viewBox="0 0 24 24" fill="none" xmlns="http://www.w3.org/2000/svg">
<g clip-path="url(#clip0_26_285)">
<path d="M11.9998 9.97858V14.2841H17.9831C17.7203 15.6688 16.9319 16.8412 15.7494 17.6296L19.3575 20.4292C21.4598 18.4888 22.6726 15.6386 22.6726 12.2528C22.6726 11.4644 22.6019 10.7063 22.4705 9.9787L11.9998 9.97858Z" fill="#4285F4"/>
<path d="M5.76926 14.1161L4.95548 14.739L2.07495 16.9827C3.9043 20.6111 7.65371 23.1177 11.9997 23.1177C15.0013 23.1177 17.5179 22.1272 19.3575 20.4292L15.7493 17.6296C14.7588 18.2966 13.4954 18.701 11.9997 18.701C9.10909 18.701 6.65317 16.7503 5.7738 14.1225L5.76926 14.1161Z" fill="#34A853"/>
<path d="M2.07486 7.01727C1.31688 8.51304 0.882324 10.2009 0.882324 11.9999C0.882324 13.7989 1.31688 15.4868 2.07486 16.9826C2.07486 16.9926 5.77407 14.1122 5.77407 14.1122C5.55171 13.4452 5.42029 12.7377 5.42029 11.9998C5.42029 11.2619 5.55171 10.5545 5.77407 9.88741L2.07486 7.01727Z" fill="#FBBC05"/>
<path d="M11.9999 5.3092C13.6372 5.3092 15.0926 5.87517 16.2549 6.96674L19.4386 3.78309C17.5081 1.98408 15.0017 0.882355 11.9999 0.882355C7.65393 0.882355 3.9043 3.37877 2.07495 7.01728L5.77405 9.88766C6.6533 7.25982 9.10932 5.3092 11.9999 5.3092Z" fill="#EA4335"/>
</g>
<defs>
<clipPath id="clip0_26_285">
<rect width="22.2353" height="22.2353" fill="white" transform="translate(0.882324 0.882355)"/>
</clipPath>
</defs>
</svg>
