<svg width="16" height="14" viewBox="0 0 16 14" fill="none" xmlns="http://www.w3.org/2000/svg">
<path d="M1.33331 2.06667C1.33331 1.6933 1.33331 1.50661 1.40598 1.36401C1.46989 1.23856 1.57188 1.13658 1.69732 1.07266C1.83993 1 2.02661 1 2.39998 1H13.6C13.9733 1 14.16 1 14.3026 1.07266C14.4281 1.13658 14.5301 1.23856 14.594 1.36401C14.6666 1.50661 14.6666 1.6933 14.6666 2.06667V2.51293C14.6666 2.69213 14.6666 2.78173 14.6447 2.86504C14.6253 2.93887 14.5934 3.00882 14.5503 3.07184C14.5017 3.14295 14.434 3.20164 14.2986 3.319L10.0347 7.01434C9.8993 7.1317 9.83159 7.19038 9.78297 7.26149C9.73989 7.32451 9.70795 7.39446 9.68854 7.46829C9.66665 7.55161 9.66665 7.64121 9.66665 7.8204V11.3056C9.66665 11.436 9.66665 11.5011 9.64562 11.5575C9.62704 11.6073 9.59682 11.6519 9.55748 11.6877C9.51296 11.7281 9.45244 11.7524 9.33139 11.8008L7.06472 12.7074C6.81969 12.8054 6.69718 12.8545 6.59883 12.834C6.51282 12.8161 6.43735 12.765 6.38881 12.6918C6.33331 12.6081 6.33331 12.4762 6.33331 12.2122V7.8204C6.33331 7.64121 6.33331 7.55161 6.31142 7.46829C6.29201 7.39446 6.26007 7.32451 6.21699 7.26149C6.16837 7.19038 6.10066 7.1317 5.96524 7.01434L1.70139 3.319C1.56597 3.20164 1.49826 3.14295 1.44964 3.07184C1.40656 3.00882 1.37461 2.93887 1.35521 2.86504C1.33331 2.78173 1.33331 2.69213 1.33331 2.51293V2.06667Z" stroke="#1B1B1B" stroke-width="1.5" stroke-linecap="round" stroke-linejoin="round"/>
</svg>
